<mxfile host="app.diagrams.net" agent="Mozilla/5.0 (Windows NT 10.0; Win64; x64) AppleWebKit/537.36 (KHTML, like Gecko) Chrome/131.0.0.0 Safari/537.36" version="24.8.6">
  <diagram name="Page-1" id="-IR_6mH_jh7ec_85QcZA">
    <mxGraphModel dx="457" dy="248" grid="1" gridSize="10" guides="1" tooltips="1" connect="1" arrows="1" fold="1" page="1" pageScale="1" pageWidth="1000" pageHeight="800" math="0" shadow="0">
      <root>
        <mxCell id="0" />
        <mxCell id="1" parent="0" />
        <mxCell id="FuLha_3-91F9rfbZAOE2-1" value="" style="swimlane;startSize=0;" vertex="1" parent="1">
          <mxGeometry x="120" y="40" width="760" height="720" as="geometry" />
        </mxCell>
        <mxCell id="FuLha_3-91F9rfbZAOE2-4" value="create an account" style="ellipse;whiteSpace=wrap;html=1;" vertex="1" parent="FuLha_3-91F9rfbZAOE2-1">
          <mxGeometry x="120" y="20" width="110" height="50" as="geometry" />
        </mxCell>
        <mxCell id="FuLha_3-91F9rfbZAOE2-6" value="CRUD" style="ellipse;whiteSpace=wrap;html=1;" vertex="1" parent="FuLha_3-91F9rfbZAOE2-1">
          <mxGeometry x="270" y="50" width="110" height="50" as="geometry" />
        </mxCell>
        <mxCell id="FuLha_3-91F9rfbZAOE2-14" value="search best&amp;nbsp;product&#39;s suppliers" style="ellipse;whiteSpace=wrap;html=1;" vertex="1" parent="FuLha_3-91F9rfbZAOE2-1">
          <mxGeometry x="90" y="170" width="140" height="70" as="geometry" />
        </mxCell>
        <mxCell id="FuLha_3-91F9rfbZAOE2-2" value="Hunt&lt;div&gt;&lt;br&gt;&lt;/div&gt;" style="text;html=1;align=center;verticalAlign=middle;resizable=0;points=[];autosize=1;strokeColor=none;fillColor=none;" vertex="1" parent="1">
          <mxGeometry x="475" y="10" width="50" height="40" as="geometry" />
        </mxCell>
        <mxCell id="FuLha_3-91F9rfbZAOE2-7" style="edgeStyle=orthogonalEdgeStyle;rounded=0;orthogonalLoop=1;jettySize=auto;html=1;entryX=0;entryY=0.5;entryDx=0;entryDy=0;curved=1;" edge="1" parent="1" source="FuLha_3-91F9rfbZAOE2-3" target="FuLha_3-91F9rfbZAOE2-4">
          <mxGeometry relative="1" as="geometry" />
        </mxCell>
        <mxCell id="FuLha_3-91F9rfbZAOE2-8" style="edgeStyle=orthogonalEdgeStyle;rounded=0;orthogonalLoop=1;jettySize=auto;html=1;entryX=0;entryY=0.5;entryDx=0;entryDy=0;curved=1;" edge="1" parent="1" source="FuLha_3-91F9rfbZAOE2-3" target="FuLha_3-91F9rfbZAOE2-6">
          <mxGeometry relative="1" as="geometry" />
        </mxCell>
        <mxCell id="FuLha_3-91F9rfbZAOE2-10" value="" style="edgeStyle=orthogonalEdgeStyle;rounded=0;orthogonalLoop=1;jettySize=auto;html=1;" edge="1" parent="1" target="FuLha_3-91F9rfbZAOE2-9">
          <mxGeometry relative="1" as="geometry">
            <mxPoint x="55" y="180" as="sourcePoint" />
          </mxGeometry>
        </mxCell>
        <mxCell id="FuLha_3-91F9rfbZAOE2-3" value="simple user" style="shape=umlActor;verticalLabelPosition=bottom;verticalAlign=top;html=1;outlineConnect=0;" vertex="1" parent="1">
          <mxGeometry x="40" y="90" width="30" height="60" as="geometry" />
        </mxCell>
        <mxCell id="FuLha_3-91F9rfbZAOE2-9" value="Business" style="shape=umlActor;verticalLabelPosition=bottom;verticalAlign=top;html=1;outlineConnect=0;" vertex="1" parent="1">
          <mxGeometry x="40" y="270" width="30" height="60" as="geometry" />
        </mxCell>
        <mxCell id="FuLha_3-91F9rfbZAOE2-15" value="Actor" style="shape=umlActor;verticalLabelPosition=bottom;verticalAlign=top;html=1;outlineConnect=0;" vertex="1" parent="1">
          <mxGeometry x="40" y="670" width="30" height="60" as="geometry" />
        </mxCell>
      </root>
    </mxGraphModel>
  </diagram>
</mxfile>
